<svg viewBox="0 0 311.84 68.02" xmlns="http://www.w3.org/2000/svg" xmlns:xlink="http://www.w3.org/1999/xlink"><linearGradient id="a" gradientUnits="userSpaceOnUse" x1="215.71" x2="215.71" y1="34.83" y2="5.76"><stop offset="0" stop-color="#22d3ee"/><stop offset=".56" stop-color="#2563eb"/></linearGradient><path d="m0 46.03h15.85v15.85h-15.85z" fill="#fff"/><path d="m20.21 46.03h15.85v15.85h-15.85z" fill="#22d3ee"/><path d="m39.95 24.75h15.85v37.13h-15.85z" fill="#2563eb"/><g fill="#fff"><path d="m0 24.75h15.85v15.85h-15.85z"/><path d="m20.21 24.75h15.85v15.85h-15.85z"/><path d="m0 3.47h15.85v15.85h-15.85z"/><path d="m20.21 3.47h15.85v15.85h-15.85z"/><path d="m39.95 3.47h15.85v15.85h-15.85z"/></g><text fill="#3b82f6" font-family="Roboto-Bold, Roboto" font-size="42.67" font-weight="700" letter-spacing=".12em" transform="translate(233.69 36.94)"><tspan x="0" y="0">inK</tspan></text><text fill="#94a3b8" font-family="Roboto-Black, Roboto" font-size="20.74" font-weight="800" transform="translate(63.62 62.4)"><tspan letter-spacing=".15em" x="0" y="0">SISTE</tspan><tspan letter-spacing=".16em" x="71.06" y="0">M</tspan><tspan letter-spacing=".15em" x="92.47" y="0">A CO</tspan><tspan letter-spacing=".14em" x="151.14" y="0">N</tspan><tspan letter-spacing=".1em" x="168.66" y="0">T</tspan><tspan letter-spacing=".15em" x="182.38" y="0">ABLE</tspan></text><text fill="#fff" font-family="Roboto-Bold, Roboto" font-size="42.67" font-weight="700" letter-spacing=".12em" transform="translate(65.91 36.5)"><tspan x="0" y="0">Conta</tspan></text><path d="m225.54 6.17v30.33h-19.67v-4.86h13.59v-25.47z" fill="url(#a)"/></svg>